<svg width="18" height="22" viewBox="0 0 18 22" fill="none" xmlns="http://www.w3.org/2000/svg">
<path d="M2.1135 21.5C1.5674 21.5 1.09991 21.3042 0.711019 20.9125C0.32213 20.5208 0.127686 20.05 0.127686 19.5V7.5C0.127686 6.95 0.32213 6.47917 0.711019 6.0875C1.09991 5.69583 1.5674 5.5 2.1135 5.5H4.09932C4.09932 4.11667 4.58336 2.9375 5.55144 1.9625C6.51953 0.9875 7.69033 0.5 9.06386 0.5C10.4374 0.5 11.6082 0.9875 12.5763 1.9625C13.5444 2.9375 14.0284 4.11667 14.0284 5.5H16.0142C16.5603 5.5 17.0278 5.69583 17.4167 6.0875C17.8056 6.47917 18 6.95 18 7.5V19.5C18 20.05 17.8056 20.5208 17.4167 20.9125C17.0278 21.3042 16.5603 21.5 16.0142 21.5H2.1135ZM2.1135 19.5H16.0142V7.5H2.1135V19.5ZM9.06386 13.5C10.4374 13.5 11.6082 13.0125 12.5763 12.0375C13.5444 11.0625 14.0284 9.88333 14.0284 8.5H12.0426C12.0426 9.33333 11.753 10.0417 11.1738 10.625C10.5946 11.2083 9.89128 11.5 9.06386 11.5C8.23643 11.5 7.53312 11.2083 6.95393 10.625C6.37473 10.0417 6.08513 9.33333 6.08513 8.5H4.09932C4.09932 9.88333 4.58336 11.0625 5.55144 12.0375C6.51953 13.0125 7.69033 13.5 9.06386 13.5ZM6.08513 5.5H12.0426C12.0426 4.66667 11.753 3.95833 11.1738 3.375C10.5946 2.79167 9.89128 2.5 9.06386 2.5C8.23643 2.5 7.53312 2.79167 6.95393 3.375C6.37473 3.95833 6.08513 4.66667 6.08513 5.5Z" fill="white"/>
</svg>
